<svg width="48" height="48" viewBox="0 0 48 48" fill="none" xmlns="http://www.w3.org/2000/svg">
<path d="M23.94 0C22.2642 0 20.9475 1.3167 20.9475 2.9925C20.9475 4.6683 22.2642 5.985 23.94 5.985C25.6158 5.985 26.9325 4.6683 26.9325 2.9925C26.9325 1.3167 25.6158 0 23.94 0ZM8.9775 5.985C7.3017 5.985 5.985 7.3017 5.985 8.9775C5.985 10.6533 7.3017 11.97 8.9775 11.97C10.6533 11.97 11.97 10.6533 11.97 8.9775C11.97 7.3017 10.6533 5.985 8.9775 5.985ZM38.9025 5.985C37.2267 5.985 35.91 7.3017 35.91 8.9775C35.91 10.6533 37.2267 11.97 38.9025 11.97C40.5783 11.97 41.895 10.6533 41.895 8.9775C41.895 7.3017 40.5783 5.985 38.9025 5.985ZM23.94 11.97C17.3565 11.97 11.97 17.3565 11.97 23.94C11.97 30.5235 17.3565 35.91 23.94 35.91C30.5235 35.91 35.91 30.5235 35.91 23.94C35.91 17.3565 30.5235 11.97 23.94 11.97ZM2.9925 20.9475C1.3167 20.9475 0 22.2642 0 23.94C0 25.6158 1.3167 26.9325 2.9925 26.9325C4.6683 26.9325 5.985 25.6158 5.985 23.94C5.985 22.2642 4.6683 20.9475 2.9925 20.9475ZM44.8875 20.9475C43.2117 20.9475 41.895 22.2642 41.895 23.94C41.895 25.6158 43.2117 26.9325 44.8875 26.9325C46.5633 26.9325 47.88 25.6158 47.88 23.94C47.88 22.2642 46.5633 20.9475 44.8875 20.9475ZM8.9775 35.91C7.3017 35.91 5.985 37.2267 5.985 38.9025C5.985 40.5783 7.3017 41.895 8.9775 41.895C10.6533 41.895 11.97 40.5783 11.97 38.9025C11.97 37.2267 10.6533 35.91 8.9775 35.91ZM38.9025 35.91C37.2267 35.91 35.91 37.2267 35.91 38.9025C35.91 40.5783 37.2267 41.895 38.9025 41.895C40.5783 41.895 41.895 40.5783 41.895 38.9025C41.895 37.2267 40.5783 35.91 38.9025 35.91ZM23.94 41.895C22.2642 41.895 20.9475 43.2117 20.9475 44.8875C20.9475 46.5633 22.2642 47.88 23.94 47.88C25.6158 47.88 26.9325 46.5633 26.9325 44.8875C26.9325 43.2117 25.6158 41.895 23.94 41.895Z" fill="black"/>
</svg>
